HIERARCHY
ROOT Hips
{
    OFFSET   0.000000   0.000000   0.000000
    CHANNELS 6 Xposition Yposition Zposition Zrotation Xrotation Yrotation
    JOINT Chest
    {
        OFFSET   0.000000   8.007230   0.000000
        CHANNELS 3 Zrotation Xrotation Yrotation
        JOINT Chest2
        {
            OFFSET   0.000000  22.077100   0.000000
            CHANNELS 3 Zrotation Xrotation Yrotation
            JOINT Neck
            {
                OFFSET   0.000000  23.254800  -0.000021
                CHANNELS 3 Zrotation Xrotation Yrotation
                JOINT Head
                {
                    OFFSET   0.000000  14.370000   1.956610
                    CHANNELS 3 Zrotation Xrotation Yrotation
                    End Site
                    {
                        OFFSET   0.000000  19.566000   0.000000
                    }
                }
            }
            JOINT LeftCollar
            {
                OFFSET   3.911900  19.017000  -0.467063
                CHANNELS 3 Zrotation Xrotation Yrotation
                JOINT LeftShoulder
                {
                    OFFSET  10.383700   0.000000   0.000000
                    CHANNELS 3 Zrotation Xrotation Yrotation
                    JOINT LeftElbow
                    {
                        OFFSET  26.662100   0.001529   0.000325
                        CHANNELS 3 Zrotation Xrotation Yrotation
                        JOINT LeftWrist
                        {
                            OFFSET  28.869000  -0.000011  -0.000096
                            CHANNELS 3 Zrotation Xrotation Yrotation
                            JOINT LeftFinger0
                            {
                                OFFSET   2.044650  -2.323460   3.252850
                                CHANNELS 3 Zrotation Xrotation Yrotation
                                JOINT LeftFinger01
                                {
                                    OFFSET   3.088130   0.000000   0.000000
                                    CHANNELS 3 Zrotation Xrotation Yrotation
                                    JOINT LeftFinger02
                                    {
                                        OFFSET   2.639460   0.000000   0.000000
                                        CHANNELS 3 Zrotation Xrotation Yrotation
                                        End Site
                                        {
                                            OFFSET   2.582190   0.000000   0.000000
                                        }
                                    }
                                }
                            }
                            JOINT LeftFinger1
                            {
                                OFFSET   8.364480   0.000000   3.252850
                                CHANNELS 3 Zrotation Xrotation Yrotation
                                JOINT LeftFinger11
                                {
                                    OFFSET   4.646930   0.000000   0.000000
                                    CHANNELS 3 Zrotation Xrotation Yrotation
                                    JOINT LeftFinger12
                                    {
                                        OFFSET   2.323460   0.000000   0.000000
                                        CHANNELS 3 Zrotation Xrotation Yrotation
                                        End Site
                                        {
                                            OFFSET   2.273050   0.000000   0.000000
                                        }
                                    }
                                }
                            }
                            JOINT LeftFinger2
                            {
                                OFFSET   8.364480   0.000016   1.078090
                                CHANNELS 3 Zrotation Xrotation Yrotation
                                JOINT LeftFinger21
                                {
                                    OFFSET   5.111620   0.000000   0.000000
                                    CHANNELS 3 Zrotation Xrotation Yrotation
                                    JOINT LeftFinger22
                                    {
                                        OFFSET   2.788160   0.000017   0.000000
                                        CHANNELS 3 Zrotation Xrotation Yrotation
                                        End Site
                                        {
                                            OFFSET   2.727660   0.000000   0.000000
                                        }
                                    }
                                }
                            }
                            JOINT LeftFinger3
                            {
                                OFFSET   7.899780   0.000015  -1.078090
                                CHANNELS 3 Zrotation Xrotation Yrotation
                                JOINT LeftFinger31
                                {
                                    OFFSET   4.646920   0.000000   0.000000
                                    CHANNELS 3 Zrotation Xrotation Yrotation
                                    JOINT LeftFinger32
                                    {
                                        OFFSET   2.323470   0.000000   0.000000
                                        CHANNELS 3 Zrotation Xrotation Yrotation
                                        End Site
                                        {
                                            OFFSET   2.273050   0.000000   0.000000
                                        }
                                    }
                                }
                            }
                            JOINT LeftFinger4
                            {
                                OFFSET   7.435090   0.000000  -3.252850
                                CHANNELS 3 Zrotation Xrotation Yrotation
                                JOINT LeftFinger41
                                {
                                    OFFSET   3.717550   0.000000   0.000000
                                    CHANNELS 3 Zrotation Xrotation Yrotation
                                    JOINT LeftFinger42
                                    {
                                        OFFSET   1.858760   0.000000   0.000000
                                        CHANNELS 3 Zrotation Xrotation Yrotation
                                        End Site
                                        {
                                            OFFSET   1.818440   0.000000   0.000000
                                        }
                                    }
                                }
                            }
                        }
                    }
                }
            }
            JOINT RightCollar
            {
                OFFSET  -3.911900  19.017000  -0.467062
                CHANNELS 3 Zrotation Xrotation Yrotation
                JOINT RightShoulder
                {
                    OFFSET -10.383700   0.000015   0.000000
                    CHANNELS 3 Zrotation Xrotation Yrotation
                    JOINT RightElbow
                    {
                        OFFSET -26.662100   0.001341   0.000385
                        CHANNELS 3 Zrotation Xrotation Yrotation
                        JOINT RightWrist
                        {
                            OFFSET -28.869000   0.000025  -0.000080
                            CHANNELS 3 Zrotation Xrotation Yrotation
                            JOINT RightFinger0
                            {
                                OFFSET  -2.044650  -2.323490   3.252850
                                CHANNELS 3 Zrotation Xrotation Yrotation
                                JOINT RightFinger01
                                {
                                    OFFSET  -3.088130   0.000000   0.000000
                                    CHANNELS 3 Zrotation Xrotation Yrotation
                                    JOINT RightFinger02
                                    {
                                        OFFSET  -2.639460   0.000000   0.000000
                                        CHANNELS 3 Zrotation Xrotation Yrotation
                                        End Site
                                        {
                                            OFFSET  -2.582190   0.000000   0.000000
                                        }
                                    }
                                }
                            }
                            JOINT RightFinger1
                            {
                                OFFSET  -8.364480   0.000000   3.252850
                                CHANNELS 3 Zrotation Xrotation Yrotation
                                JOINT RightFinger11
                                {
                                    OFFSET  -4.646930   0.000000   0.000000
                                    CHANNELS 3 Zrotation Xrotation Yrotation
                                    JOINT RightFinger12
                                    {
                                        OFFSET  -2.323470   0.000000   0.000000
                                        CHANNELS 3 Zrotation Xrotation Yrotation
                                        End Site
                                        {
                                            OFFSET  -2.273050   0.000000   0.000000
                                        }
                                    }
                                }
                            }
                            JOINT RightFinger2
                            {
                                OFFSET  -8.364480   0.000000   1.078090
                                CHANNELS 3 Zrotation Xrotation Yrotation
                                JOINT RightFinger21
                                {
                                    OFFSET  -5.111610   0.000000   0.000000
                                    CHANNELS 3 Zrotation Xrotation Yrotation
                                    JOINT RightFinger22
                                    {
                                        OFFSET  -2.788160   0.000000   0.000000
                                        CHANNELS 3 Zrotation Xrotation Yrotation
                                        End Site
                                        {
                                            OFFSET  -2.727660   0.000000   0.000000
                                        }
                                    }
                                }
                            }
                            JOINT RightFinger3
                            {
                                OFFSET  -7.899780   0.000000  -1.078090
                                CHANNELS 3 Zrotation Xrotation Yrotation
                                JOINT RightFinger31
                                {
                                    OFFSET  -4.646920   0.000000   0.000000
                                    CHANNELS 3 Zrotation Xrotation Yrotation
                                    JOINT RightFinger32
                                    {
                                        OFFSET  -2.323470   0.000000   0.000000
                                        CHANNELS 3 Zrotation Xrotation Yrotation
                                        End Site
                                        {
                                            OFFSET  -2.273050   0.000000   0.000000
                                        }
                                    }
                                }
                            }
                            JOINT RightFinger4
                            {
                                OFFSET  -7.435090   0.000000  -3.252850
                                CHANNELS 3 Zrotation Xrotation Yrotation
                                JOINT RightFinger41
                                {
                                    OFFSET  -3.717550   0.000000   0.000000
                                    CHANNELS 3 Zrotation Xrotation Yrotation
                                    JOINT RightFinger42
                                    {
                                        OFFSET  -1.858770   0.000000   0.000000
                                        CHANNELS 3 Zrotation Xrotation Yrotation
                                        End Site
                                        {
                                            OFFSET  -1.818440   0.000000   0.000000
                                        }
                                    }
                                }
                            }
                        }
                    }
                }
            }
        }
    }
    JOINT LeftHip
    {
        OFFSET   9.783010   0.000000   0.000000
        CHANNELS 3 Zrotation Xrotation Yrotation
        JOINT LeftKnee
        {
            OFFSET   0.000070 -41.789100   0.000028
            CHANNELS 3 Zrotation Xrotation Yrotation
            JOINT LeftAnkle
            {
                OFFSET   0.000087 -41.133200  -0.000100
                CHANNELS 3 Zrotation Xrotation Yrotation
                JOINT LeftToe
                {
                    OFFSET   0.000000  -6.358960  14.674500
                    CHANNELS 3 Zrotation Xrotation Yrotation
                    End Site
                    {
                        OFFSET   0.000000   0.000000   3.913200
                    }
                }
            }
        }
    }
    JOINT RightHip
    {
        OFFSET  -9.783020   0.000000   0.000000
        CHANNELS 3 Zrotation Xrotation Yrotation
        JOINT RightKnee
        {
            OFFSET   0.000044 -41.789100  -0.000870
            CHANNELS 3 Zrotation Xrotation Yrotation
            JOINT RightAnkle
            {
                OFFSET  -0.000090 -41.133200  -0.000245
                CHANNELS 3 Zrotation Xrotation Yrotation
                JOINT RightToe
                {
                    OFFSET   0.000000  -6.358960  14.674500
                    CHANNELS 3 Zrotation Xrotation Yrotation
                    End Site
                    {
                        OFFSET   0.000000   0.000000   3.913200
                    }
                }
            }
        }
    }
}
MOTION
Frames: 5
Frame Time:   0.016667
  0.672286  90.112500  -1.673190  -1.477500  -5.118630  -1.808770  -0.113715   4.903120   0.225895  -0.248301   9.805810   0.464162   0.579374  -0.334795   0.001143   0.952004  -0.678898   5.109230  -4.265290  -2.285250   4.569900 -72.111200  21.722500  -2.869850  -3.311360  -7.118950 -18.521700  14.997300   5.120460   7.889370  41.968000  34.105400 -71.186800 -25.469900  -0.003360   0.007571  -7.737340  -0.004358   0.003310 -33.446300   7.076050 -10.561500 -27.901000  -0.009990  -0.001597 -19.530700  -0.003428   0.003775 -29.697000   2.538350  -4.440390 -44.693200  -0.000481  -0.003340 -29.765700  -0.009735  -0.003741 -28.422000   2.439120  -4.495580 -36.400800  -0.008212  -0.007743 -24.243000  -0.001590  -0.007144 -34.320000   0.397952  -0.577406 -51.483100  -0.009803  -0.008246 -34.287700   0.005191  -0.005886   8.555760   0.934262   7.112520  70.405500  10.341500   2.889070   1.624410  -6.601020  16.802000 -16.103700 -13.835500   4.934680 -37.552800  33.495000  67.498300  33.042300   0.004349  -0.007041  11.521200   0.013953  -0.006119  41.146400   3.650710   4.168710  33.777300  -0.004368   0.002038  23.931300  -0.004854   0.005147  30.992700  -3.333220  -5.529600  46.730000  -0.000840   0.002400  31.109500   0.001205   0.001662  33.799000  -3.600660  -5.359580  50.951200  -0.000464   0.001852  33.933600  -0.003444   0.001194  50.845600  -5.013400  -4.069450  76.548500   0.004872  -0.001529  50.981300  -0.000871  -0.000544   0.440441   5.178910   2.634810   0.328073   0.099247  11.030900  -3.891720  -2.847610   6.513370   0.000000   0.000000   0.000000   1.890120   3.281700  -7.978250  -1.913240   4.022940  -6.949720  -8.460720   1.127190   3.223290   0.000000   0.000000   0.000000
  0.672389  90.112600  -1.704270  -1.476400  -5.169020  -1.778920  -0.113776   4.931200   0.226005  -0.248516   9.861940   0.464490   0.605894  -0.334817   0.001144   0.995693  -0.678903   5.081670  -4.264480  -2.291170   4.573680 -72.100400  21.773500  -2.906300  -3.309910  -7.164080 -18.540000  14.984300   5.103050   7.908010  41.962800  34.107300 -71.203000 -25.469900  -0.003353   0.007571  -7.737300  -0.004357   0.003313 -33.459200   7.076120 -10.558600 -27.913000  -0.009989  -0.001589 -19.538800  -0.003426   0.003782 -29.705000   2.530070  -4.424540 -44.704500  -0.000466  -0.003336 -29.773300  -0.009735  -0.003735 -28.423500   2.430750  -4.479790 -36.422000  -0.008202  -0.007734 -24.257100  -0.001590  -0.007133 -34.334100   0.397800  -0.572488 -51.504100  -0.009807  -0.008238 -34.301700   0.005188  -0.005881   8.563750   0.925681   7.121980  70.374000  10.409600   2.930960   1.621270  -6.601780  16.795300 -16.106800 -13.897700   4.900490 -37.550900  33.493200  67.502400  33.052500   0.004348  -0.007010  11.526300   0.013974  -0.006106  41.149600   3.628990   4.143430  33.777300  -0.004347   0.002011  23.931300  -0.004847   0.005118  30.989200  -3.351970  -5.561030  46.726300  -0.000827   0.002380  31.109200   0.001203   0.001647  33.794600  -3.620640  -5.390250  50.946800  -0.000456   0.001836  33.930700  -0.003443   0.001181  50.841400  -5.041670  -4.092700  76.544400   0.004879  -0.001555  50.978600  -0.000885  -0.000553   0.436348   5.169510   2.630720   0.336186   0.154973  11.030800  -3.890080  -2.835510   6.492870   0.000000   0.000000   0.000000   1.923680   3.244640  -7.966380  -1.961520   4.166520  -7.027220  -8.433600   1.061730   3.255220   0.000000   0.000000  -0.000000
  0.672799  90.112800  -1.756540  -1.474410  -5.258600  -1.727060  -0.113919   4.979940   0.226123  -0.249072   9.959400   0.464877   0.648379  -0.334970   0.001151   1.065280  -0.678923   5.039870  -4.263240  -2.300590   4.581020 -72.083300  21.855400  -2.961940  -3.318030  -7.233270 -18.569200  14.962200   5.085570   7.932520  41.956200  34.115600 -71.231900 -25.469900  -0.003335   0.007570  -7.737210  -0.004352   0.003318 -33.477000   7.076260 -10.552300 -27.925600  -0.009984  -0.001563 -19.547900  -0.003420   0.003805 -29.714200   2.513710  -4.394450 -44.715900  -0.000430  -0.003327 -29.780800  -0.009739  -0.003728 -28.426200   2.414610  -4.449600 -36.443200  -0.008174  -0.007711 -24.271200  -0.001589  -0.007107 -34.348100   0.397585  -0.567570 -51.525200  -0.009817  -0.008215 -34.315800   0.005180  -0.005867   8.581180   0.906043   7.140540  70.320800  10.533900   3.007820   1.613340  -6.606470  16.767500 -16.113700 -13.973100   4.846570 -37.535400  33.494800  67.518400  33.069800   0.004337  -0.006948  11.534900   0.014023  -0.006073  41.154400   3.596090   4.104650  33.777300  -0.004291   0.001940  23.931300  -0.004827   0.005044  30.983800  -3.380110  -5.608240  46.721300  -0.000795   0.002331  31.108900   0.001193   0.001609  33.788300  -3.650980  -5.436090  50.942400  -0.000436   0.001795  33.927700  -0.003439   0.001150  50.835200  -5.084070  -4.127710  76.537700   0.004895  -0.001619  50.974100  -0.000923  -0.000575   0.428102   5.160130   2.621320   0.344301   0.210700  11.030100  -3.885500  -2.802860   6.460780  -0.000000   0.000000   0.000000   1.975470   3.188640  -7.935830  -2.041120   4.402490  -7.146090  -8.387440   0.963457   3.287110   0.000000   0.000000  -0.000000
  0.673194  90.111600  -1.799300  -1.474310  -5.341670  -1.681090  -0.114091   5.022950   0.225075  -0.249559  10.045400   0.462908   0.680519  -0.339873   0.001165   1.118140  -0.688709   5.016360  -4.262310  -2.308690   4.589070 -72.071100  21.915200  -2.994710  -3.337000  -7.278600 -18.591600  14.939500   5.098010   7.937440  41.961400  34.134400 -71.266400 -25.474300  -0.003303   0.007564  -7.737080  -0.004330   0.003323 -33.483500   7.073710 -10.545100 -27.926300  -0.009975  -0.001513 -19.549000  -0.003408   0.003843 -29.712300   2.495720  -4.363500 -44.710500  -0.000376  -0.003316 -29.777200  -0.009747  -0.003727 -28.428900   2.397510  -4.418150 -36.433000  -0.008131  -0.007672 -24.264400  -0.001586  -0.007070 -34.339500   0.397491  -0.570600 -51.512200  -0.009829  -0.008180 -34.307100   0.005166  -0.005842   8.602880   0.880654   7.160460  70.275500  10.659100   3.082070   1.606780  -6.636240  16.715300 -16.116800 -13.988800   4.810700 -37.531800  33.525500  67.581100  33.084200   0.004309  -0.006873  11.542000   0.014088  -0.006025  41.170200   3.573110   4.075940  33.788700  -0.004202   0.001830  23.941800  -0.004792   0.004930  30.980600  -3.396230  -5.634730  46.720400  -0.000748   0.002258  31.112000   0.001175   0.001549  33.796000  -3.669250  -5.461180  50.956600  -0.000405   0.001729  33.937200  -0.003432   0.001103  50.833000  -5.108010  -4.147430  76.535000   0.004923  -0.001716  50.972300  -0.000982  -0.000606   0.416330   5.209980   2.607680   0.351332   0.173116  11.028300  -3.876780  -2.743290   6.438810   0.000000   0.000000   0.000000   2.008830   3.154470  -7.882160  -2.103840   4.587320  -7.227200  -8.349530   0.906178   3.257850   0.000000   0.000000  -0.000000
  0.674734  90.109300  -1.842720  -1.474430  -5.432090  -1.632620  -0.114235   5.068470   0.222149  -0.249752  10.136500   0.457191   0.707095  -0.349725   0.001184   1.161810  -0.708830   4.995330  -4.261910  -2.313280   4.598310 -72.060300  21.970000  -3.023090  -3.355540  -7.311480 -18.609200  14.921800   5.124900   7.940840  41.959300  34.149100 -71.292800 -25.480700  -0.003261   0.007555  -7.736950  -0.004297   0.003328 -33.486800   7.067010 -10.535000 -27.926400  -0.009963  -0.001450 -19.549300  -0.003392   0.003894 -29.704600   2.473680  -4.326450 -44.697000  -0.000309  -0.003302 -29.768200  -0.009759  -0.003724 -28.431700   2.376860  -4.380320 -36.411300  -0.008075  -0.007620 -24.249900  -0.001584  -0.007023 -34.322600   0.397459  -0.576507 -51.486900  -0.009844  -0.008133 -34.290300   0.005148  -0.005809   8.631240   0.845805   7.185450  70.232300  10.791900   3.168770   1.599730  -6.678070  16.633800 -16.106900 -13.991600   4.777970 -37.520900  33.548300  67.636000  33.099700   0.004275  -0.006789  11.549800   0.014168  -0.005966  41.185000   3.561310   4.060730  33.800100  -0.004093   0.001693  23.952300  -0.004750   0.004789  30.977900  -3.408500  -5.655820  46.719400  -0.000690   0.002169  31.115200   0.001150   0.001476  33.804300  -3.683560  -5.480970  50.970900  -0.000367   0.001649  33.946600  -0.003422   0.001046  50.831600  -5.126480  -4.163400  76.527100   0.004957  -0.001835  50.967000  -0.001055  -0.000643   0.401583   5.303360   2.592820   0.362112   0.114618  11.020800  -3.868200  -2.683140   6.420640   0.000000   0.000000   0.000000   2.036000   3.130170  -7.828830  -2.166830   4.762530  -7.280130  -8.308850   0.864662   3.199710  -0.000000   0.000000   0.000000
